C:\Users\nbianco\repos\ankle-perturb-sim\results\experiments\subject19\walk2\expdata\ground_reaction_unfiltered.mot
version=1
nRows=22
nColumns=19
inDegrees=no
endheader
time	ground_force_r_vx	ground_force_r_vy	ground_force_r_vz	ground_force_r_px	ground_force_r_py	ground_force_r_pz	ground_force_l_vx	ground_force_l_vy	ground_force_l_vz	ground_force_l_px	ground_force_l_py	ground_force_l_pz	ground_torque_r_x	ground_torque_r_y	ground_torque_r_z	ground_torque_l_x	ground_torque_l_y	ground_torque_l_z
4.208333	7.417586	556.703423	-25.857975	0.885755	0.000000	-0.407945	-0.000000	-0.000001	0.000000	-0.000000	-0.000000	0.000000	0.000000	1.551232	0.000000	0.000000	0.000000	0.000000
4.209375	7.926813	558.024691	-25.813276	0.884554	0.000000	-0.407928	-0.000000	-0.000000	0.000000	-0.000000	-0.000000	0.000000	0.000000	1.586288	0.000000	0.000000	0.000000	0.000000
4.210417	8.435793	559.344338	-25.763465	0.883356	0.000000	-0.407909	-0.000000	-0.000000	0.000000	0.000000	0.000000	-0.000000	0.000000	1.619909	0.000000	0.000000	0.000000	0.000000
4.211458	8.943860	560.662337	-25.709354	0.882162	0.000000	-0.407890	-0.000000	0.000000	0.000000	0.000000	0.000000	-0.000000	0.000000	1.652017	0.000000	0.000000	0.000000	0.000000
4.212500	9.450507	561.978686	-25.652045	0.880972	0.000000	-0.407869	-0.000000	0.000000	0.000000	0.000000	0.000000	-0.000000	0.000000	1.682552	0.000000	0.000000	0.000000	0.000000
4.213542	9.955412	563.293417	-25.592892	0.879785	0.000000	-0.407847	-0.000000	0.000001	0.000000	0.000000	0.000000	-0.000000	0.000000	1.711481	0.000000	0.000000	0.000000	0.000000
4.214583	10.458445	564.606601	-25.533469	0.878600	0.000000	-0.407825	-0.000000	0.000001	0.000000	0.000000	0.000000	-0.000000	0.000000	1.738791	0.000000	0.000000	0.000000	0.000000
4.215625	10.959675	565.918356	-25.475528	0.877418	0.000000	-0.407802	0.000000	0.000002	0.000000	0.000000	0.000000	-0.000000	0.000000	1.764492	0.000000	0.000000	0.000000	0.000000
4.216667	11.459369	567.228855	-25.420951	0.876238	0.000000	-0.407778	0.000000	0.000002	-0.000000	0.000000	0.000000	-0.000000	0.000000	1.788615	0.000000	0.000000	0.000000	0.000000
4.217708	11.957980	568.538335	-25.371701	0.875058	0.000000	-0.407755	0.000000	0.000002	-0.000000	0.000000	0.000000	-0.000000	0.000000	1.811214	0.000000	0.000000	0.000000	0.000000
4.218750	12.456133	569.847102	-25.329766	0.873879	0.000000	-0.407731	0.000000	0.000002	-0.000000	0.000000	0.000000	-0.000000	0.000000	1.832361	0.000000	0.000000	0.000000	0.000000
4.219792	12.954607	571.155543	-25.297113	0.872699	0.000000	-0.407707	0.000000	0.000002	-0.000000	0.000000	0.000000	-0.000000	0.000000	1.852146	0.000000	0.000000	0.000000	0.000000
4.220833	13.454304	572.464119	-25.275629	0.871518	0.000000	-0.407684	0.000001	0.000001	-0.000000	0.000000	0.000000	-0.000000	0.000000	1.870677	0.000000	0.000000	0.000000	0.000000
4.221875	13.956224	573.773378	-25.267073	0.870335	0.000000	-0.407661	0.000001	0.000000	-0.000000	-0.000000	-0.000000	0.000000	0.000000	1.888075	0.000000	0.000000	0.000000	0.000000
4.222917	14.461436	575.083945	-25.273035	0.869151	0.000000	-0.407638	0.000001	-0.000001	-0.000000	-0.000000	-0.000000	0.000000	0.000000	1.904474	0.000000	0.000000	0.000000	0.000000
4.223958	14.971044	576.396524	-25.294886	0.867963	0.000000	-0.407617	0.000001	-0.000002	-0.000000	-0.000000	-0.000000	0.000000	0.000000	1.920020	0.000000	0.000000	0.000000	0.000000
4.225000	15.486160	577.711885	-25.333750	0.866773	0.000000	-0.407595	0.000000	-0.000004	-0.000000	-0.000000	-0.000000	0.000000	0.000000	1.934863	0.000000	0.000000	0.000000	0.000000
4.226042	16.007870	579.030857	-25.390471	0.865580	0.000000	-0.407575	0.000000	-0.000006	-0.000000	-0.000000	-0.000000	0.000000	0.000000	1.949163	0.000000	0.000000	0.000000	0.000000
4.227083	16.537216	580.354314	-25.465596	0.864384	0.000000	-0.407555	-0.000000	-0.000007	-0.000000	-0.000000	-0.000000	0.000000	0.000000	1.963081	0.000000	0.000000	0.000000	0.000000
4.228125	17.075168	581.683155	-25.559361	0.863185	0.000000	-0.407536	-0.000001	-0.000008	0.000000	-0.000000	-0.000000	0.000000	0.000000	1.976778	0.000000	0.000000	0.000000	0.000000
4.229167	17.622609	583.018294	-25.671687	0.861983	0.000000	-0.407518	-0.000001	-0.000008	0.000000	-0.000000	-0.000000	0.000000	0.000000	1.990415	0.000000	0.000000	0.000000	0.000000
4.230208	18.180322	584.360631	-25.802188	0.860780	0.000000	-0.407501	-0.000002	-0.000007	0.000000	-0.000000	-0.000000	0.000000	0.000000	2.004149	0.000000	0.000000	0.000000	0.000000
